<?xml version="1.0" standalone="no"?>
<!DOCTYPE svg PUBLIC "-//W3C//DTD SVG 20010904//EN"
 "http://www.w3.org/TR/2001/REC-SVG-20010904/DTD/svg10.dtd">
<svg version="1.0" xmlns="http://www.w3.org/2000/svg"
 width="512.000000pt" height="512.000000pt" viewBox="0 0 512.000000 512.000000"
 preserveAspectRatio="xMidYMid meet">
<metadata>
Created by potrace 1.11, written by Peter Selinger 2001-2013
</metadata>
<g transform="translate(0.000000,512.000000) scale(0.100000,-0.100000)"
fill="#000000" stroke="none">
<path d="M2140 5003 c-13 -32 -31 -76 -40 -98 -10 -22 -57 -137 -105 -255 -90
-223 -168 -413 -190 -465 -7 -16 -56 -138 -109 -270 -54 -132 -101 -249 -106
-260 -17 -37 -180 -437 -180 -441 0 -3 -9 -24 -19 -47 -10 -23 -73 -175 -139
-337 -66 -162 -141 -347 -167 -410 -26 -63 -76 -187 -112 -275 -36 -88 -71
-173 -78 -190 -8 -16 -32 -77 -55 -135 -23 -58 -47 -118 -54 -135 -14 -31
-104 -251 -401 -980 -91 -226 -170 -419 -175 -430 -26 -58 -69 -165 -67 -166
7 -4 710 -3 716 1 5 4 509 1246 578 1426 4 12 154 14 1103 14 866 0 1100 -3
1107 -12 8 -12 29 -62 93 -228 26 -67 329 -822 340 -845 5 -11 39 -96 77 -190
l68 -170 373 0 c204 0 372 4 372 8 0 5 -42 110 -94 235 -52 125 -137 333 -190
462 -53 129 -101 244 -106 255 -5 11 -26 61 -46 110 -20 50 -42 104 -49 120
-8 17 -50 120 -95 230 -45 110 -88 214 -95 230 -24 55 -136 328 -176 427 -21
54 -47 117 -58 140 -20 45 -62 148 -406 983 -113 275 -210 509 -215 520 -5 11
-72 173 -149 360 -77 187 -189 459 -249 605 l-110 265 -385 3 -385 2 -22 -57z
m441 -718 c17 -66 34 -129 39 -140 5 -11 20 -51 34 -90 21 -61 101 -263 125
-320 5 -11 33 -81 61 -155 29 -74 58 -148 65 -165 7 -16 28 -68 45 -115 18
-47 38 -98 46 -115 7 -16 22 -55 34 -85 11 -30 25 -64 30 -75 5 -11 83 -211
175 -444 91 -234 171 -433 176 -444 6 -10 8 -21 5 -25 -9 -8 -1747 -8 -1752 0
-3 4 0 15 5 25 9 16 165 411 211 533 9 25 21 54 25 65 24 57 132 332 161 410
19 50 39 99 44 110 5 11 39 97 76 190 36 94 91 233 121 310 120 305 158 413
210 595 15 52 29 86 31 75 1 -11 17 -74 33 -140z"/>
</g>
</svg>
